<svg xmlns="http://www.w3.org/2000/svg" width="24" height="24" viewBox="0 0 24 24">
    <path d="M23.534 9.911l-6.044 4.374 2.328 7.114c.037.11.056.23.056.35 0 .622-.503 1.127-1.124 1.127-.247 0-.474-.08-.66-.213L12 18.257l-6.091 4.406c-.185.134-.413.213-.659.213-.622 0-1.126-.504-1.126-1.126 0-.122.02-.24.057-.351l2.329-7.114L.466 9.912C.183 9.707 0 9.374 0 9c0-.621.503-1.124 1.125-1.124h7.482L10.924.795C11.065.335 11.494 0 12 0c.507 0 .936.335 1.076.795l2.317 7.081h7.482C23.496 7.876 24 8.38 24 9c0 .375-.184.708-.466.911z" transform="translate(-253 -658) translate(23 567) translate(172 77) translate(34 14) translate(24)"/>
</svg>
