<svg xmlns="http://www.w3.org/2000/svg" width="24" height="24" viewBox="0 0 24 24">
    <path d="M5.473 0c.254.009.461.206.482.458l.438 5.253c.027.324.602.324.629 0L7.46.458C7.48.199 7.697 0 7.958 0c.26 0 .475.199.498.458l.436 5.253c.027.324.603.324.63 0L9.96.458c.02-.253.226-.45.48-.458h.018c.246 0 .458.18.494.426l.907 6.05c.267 1.773-.694 3.469-2.316 4.176l.771 10.82c.046.651-.182 1.298-.627 1.776-.444.478-1.074.752-1.728.752-.657 0-1.287-.274-1.73-.752-.446-.478-.673-1.125-.628-1.776l.772-10.82C4.751 9.945 3.79 8.249 4.056 6.476l.907-6.05C5 .18 5.21 0 5.457 0zM18.79.029c.153-.053.323-.031.455.063.134.094.212.245.212.408v21.1c0 1.323-1.077 2.4-2.4 2.4-.677 0-1.328-.287-1.782-.789-.454-.502-.675-1.176-.607-1.849l.791-7.911c.011-.115.063-.222.144-.304l.64-.64c-.643-.72-1.786-2.494-1.786-6.007 0-4.88 4.29-6.456 4.333-6.471z"/>
</svg>
