<svg xmlns="http://www.w3.org/2000/svg" width="24" height="24" viewBox="0 0 24 24">
    <path d="M18.308 21.008v2.989H5.69v-2.989h12.618zM8.068 1.51C9.53.192 11.578-.311 13.494.19c2.014.53 3.61 2.106 4.165 4.11.062.241.252.43.493.495s.5-.007.675-.186c.175-.179.24-.44.17-.675-.194-.707-.494-1.374-.89-1.988.427-.132.87-.197 1.321-.197.005 0 .01-.002.013 0 2.347 0 4.296 1.76 4.535 4.096.238 2.336-1.316 4.453-3.615 4.927-.282.057-.497.279-.546.564l-1.4 8.283h-2.169l.387-5.437c-.005-.37-.3-.672-.67-.685-.384-.007-.685.266-.717.639l-.392 5.483h-2.161v-4.558c0-.383-.311-.694-.694-.694-.382 0-.694.311-.694.694v4.558h-2.16l-.394-5.486c-.03-.37-.317-.649-.717-.636-.369.013-.663.315-.666.737l.384 5.385h-2.17l-1.4-8.283c-.048-.285-.262-.507-.544-.564-2.34-.482-3.92-2.713-3.596-5.08.323-2.367 2.447-4.086 4.824-3.932 2.384.16 4.25 2.158 4.25 4.546 0 .383.311.695.694.695.383 0 .695-.312.695-.695 0-1.91-.906-3.68-2.437-4.797z"/>
</svg>
