<svg xmlns="http://www.w3.org/2000/svg" width="24" height="24" viewBox="0 0 24 24">
    <path d="M15.446 0c.235 0 .425.19.425.425v1.204c0 .235-.19.425-.425.425h-1.585v1.533c4.893.773 8.634 5.01 8.634 10.12 0 5.66-4.588 10.248-10.247 10.248C6.588 23.955 2 19.367 2 13.707c0-1.881.507-3.643 1.391-5.158L2.92 9c-1.297-1.45-1.21-3.711.192-5.05C4.514 2.61 6.703 2.697 8 4.147l-.497.475c.964-.505 2.018-.86 3.132-1.037V2.054H8.768c-.235 0-.425-.19-.425-.425V.425c0-.235.19-.425.425-.425zm-3.339 5.444c-4.492.075-8.124 3.753-8.124 8.263 0 4.557 3.708 8.265 8.265 8.265s8.264-3.707 8.264-8.265h-8.405zm1.324 13.195v2.196h-1.324v-2.196h1.324zm-3.973-.4l.572.332-.839 1.44-.57-.334.837-1.438zm6.293 0l.812 1.392c-.177.133-.36.258-.548.375l-.835-1.435.57-.333zm-8.242-2.184l.33.573-1.445.835-.33-.573 1.445-.835zm10.193 0l1.172.678c-.09.202-.19.4-.296.591l-1.207-.696.33-.573zM7.438 12.666v1.653H5.233v-1.653h2.205zM6.394 9.523l1.445.835-.331.572-1.445-.834.33-.573zM9.19 6.975l.838 1.44-.572.332-.838-1.439.572-.333z"/>
</svg>
