<svg xmlns="http://www.w3.org/2000/svg" width="24" height="24" viewBox="0 0 24 24">
    <path d="M10.595 12.158v1.729H3.293v-1.73h7.302zM4.67.874C5.514.11 6.7-.18 7.81.11c1.165.307 2.09 1.219 2.41 2.378.036.14.146.25.286.287.14.037.289-.004.39-.108.101-.104.139-.254.099-.391-.113-.409-.286-.795-.515-1.15.247-.077.503-.115.764-.115 1.366 0 2.494 1.02 2.632 2.371.138 1.352-.762 2.577-2.092 2.851-.163.034-.287.162-.316.327l-.81 4.793H9.402l.224-3.146c-.003-.215-.174-.39-.388-.397-.222-.003-.397.154-.415.37l-.227 3.173h-1.25V8.716c0-.221-.18-.401-.402-.401-.221 0-.402.18-.402.401v2.638h-1.25L5.064 8.18c-.017-.214-.183-.375-.414-.368-.214.008-.385.182-.386.427l.222 3.116H3.231l-.81-4.793c-.029-.165-.153-.293-.316-.327-1.353-.279-2.268-1.57-2.08-2.94C.21 1.926 1.44.93 2.814 1.02c1.38.093 2.46 1.25 2.46 2.631 0 .222.18.402.402.402.222 0 .402-.18.402-.402 0-1.105-.524-2.13-1.41-2.776z" transform="translate(0 3)"/>
    <path d="M6.492.347c3.393 0 6.144 2.751 6.144 6.145 0 3.393-2.751 6.144-6.144 6.144-3.394 0-6.145-2.751-6.145-6.144C.347 3.098 3.098.347 6.492.347zm.127 3.246h-.263c-.218 0-.395.177-.395.395V5.96H3.988c-.218 0-.395.177-.395.395v.263c0 .218.177.395.395.395H5.96v1.973c0 .218.177.395.395.395h.263c.218 0 .395-.177.395-.395V7.014h1.973c.218 0 .395-.177.395-.395v-.263c0-.218-.177-.395-.395-.395H7.014V3.988c0-.218-.177-.395-.395-.395z" transform="translate(11.322 7.076)"/>
    <path d="M6.492.347C3.098.347.347 3.098.347 6.492c0 3.393 2.751 6.144 6.145 6.144 3.393 0 6.144-2.751 6.144-6.144 0-3.394-2.751-6.145-6.144-6.145zm0 .695c3.01 0 5.45 2.44 5.45 5.45 0 3.01-2.44 5.45-5.45 5.45-3.01 0-5.45-2.44-5.45-5.45 0-3.01 2.44-5.45 5.45-5.45z" transform="translate(11.322 7.076)"/>
</svg>
