<svg xmlns="http://www.w3.org/2000/svg" width="24" height="24" viewBox="0 0 24 24">
    <path d="M17.406 13.868h-.29c-5.016 0-10.032-.002-15.048.002-.688 0-1.26-.223-1.693-.772-.603-.763-.458-1.997.288-2.623.43-.362.922-.471 1.46-.471h15.313c-.089-.095-.14-.153-.194-.207-1.462-1.461-2.922-2.924-4.387-4.382-.43-.428-.698-.927-.663-1.543.046-.812.45-1.41 1.201-1.717.717-.292 1.397-.169 1.994.34.077.065.152.134.223.205 2.566 2.566 5.13 5.134 7.7 7.697.638.637.837 1.387.544 2.231-.1.287-.3.562-.516.78-2.576 2.594-5.162 5.178-7.75 7.76-.994.99-2.532.73-3.158-.523-.355-.709-.181-1.602.438-2.223l4.352-4.36c.052-.05.1-.104.186-.194"/>
</svg>
