<svg xmlns="http://www.w3.org/2000/svg" width="24" height="24" viewBox="0 0 24 24">
    <path d="M21.304 14.662c-.35 2.226-.691 4.432-1.048 6.635-.077.482-.14.984-.331 1.424-.34.782-1.003 1.216-1.857 1.22-3.832.018-7.663.017-11.495.005-1.098-.003-1.972-.831-2.155-1.994-.381-2.422-.753-4.845-1.132-7.29h18.018zM3.86 10.887h16.866c.847 0 1.137.353.981 1.182-.064.339-.114.68-.176 1.055H3.054c-.072-.477-.168-.947-.209-1.421-.038-.45.28-.776.732-.813.094-.008.189-.003.283-.003zm7.773-3.714h7.38c.554.001 1.009.355 1.102.844.114.592-.159 1.116-.707 1.31-.173.06-.37.072-.555.072-4.355.004-8.71.004-13.066.003-.686 0-1.084-.254-1.25-.781-.228-.728.292-1.444 1.065-1.446 2.01-.005 4.02-.002 6.03-.002zM2.956.408c.784 1.122 1.538 2.264 2.3 3.4.037.055.063.142.046.2-.165.577-.063 1.137.086 1.666l-1.283.386-.48-.71c-.799-1.188-1.6-2.374-2.394-3.567C.841 1.197.955.54 1.488.185c.46-.307 1.15-.23 1.468.223zm10.979.006c1.436.643 2.684 1.448 3.122 3.08.128.478.113.96-.094 1.412-.22.482-.597.767-1.152.766-2.764 0-5.529-.005-8.293.007-.312.001-.487-.13-.618-.38-.388-.735-.142-1.438.687-1.687.581-.174 1.21-.189 1.818-.27.63-.084 1.284-.082 1.887-.258 1.336-.39 2.357-1.157 2.643-2.67z"/>
</svg>
