<svg xmlns="http://www.w3.org/2000/svg" width="24" height="24" viewBox="0 0 24 24">
    <path d="M16 19.5V17c0-.146-.047-.266-.14-.36-.094-.093-.214-.14-.36-.14H14v-8c0-.146-.047-.266-.14-.36-.094-.093-.214-.14-.36-.14h-5c-.146 0-.266.047-.36.14-.093.094-.14.214-.14.36V11c0 .146.047.266.14.36.094.093.214.14.36.14H10v5H8.5c-.146 0-.266.047-.36.14-.093.094-.14.214-.14.36v2.5c0 .146.047.266.14.36.094.093.214.14.36.14h7c.146 0 .266-.047.36-.14.093-.094.14-.214.14-.36zm-2-14V3c0-.146-.047-.266-.14-.36-.094-.093-.214-.14-.36-.14h-3c-.146 0-.266.047-.36.14-.093.094-.14.214-.14.36v2.5c0 .146.047.266.14.36.094.093.214.14.36.14h3c.146 0 .266-.047.36-.14.093-.094.14-.214.14-.36zM24 12c0 2.177-.536 4.185-1.61 6.023-1.072 1.839-2.528 3.295-4.367 4.368C16.185 23.464 14.177 24 12 24c-2.177 0-4.185-.536-6.023-1.61-1.839-1.072-3.295-2.528-4.368-4.367C.536 16.185 0 14.177 0 12c0-2.177.536-4.185 1.61-6.023 1.072-1.839 2.528-3.295 4.367-4.368C7.815.536 9.823 0 12 0c2.177 0 4.185.536 6.023 1.61 1.839 1.072 3.295 2.528 4.368 4.367C23.464 7.815 24 9.823 24 12z"/>
</svg>
