<svg xmlns="http://www.w3.org/2000/svg" width="24" height="24" viewBox="0 0 24 24">
    <path d="M8.612.817C8.767.389 9.21.142 9.657.228L23.24 3.503c.256.052.478.21.613.435.133.224.165.494.085.744l-.003.01-.034.099c-.257.75-1.812 5.259-3.545 9.958l-.232.627-.117.314-.234.627-.117.313-.235.623c-1.544 4.08-2.776 6.625-6.283 6.708-1.3.059-2.496-.511-2.498-.512L2.98 19.97S-.643 18.836.101 14.122l10.465 4.228v.055c.008.493.165 4.091 3.218 3.663 0 .003.002.005.004.007 1.603-.271 2.447-1.598 3.913-5.473 1.519-4.012 3.097-8.291 3.931-10.766l.167-.502.075-.229L10.07 2.093 5.163 14.601l-1.729-.63zm1.31 13.597c.157-.485.678-.748 1.161-.587l3.975 1.41c.483.158.746.679.587 1.162-.127.387-.487.632-.873.632-.096 0-.192-.014-.288-.046l-3.974-1.411c-.483-.158-.747-.68-.588-1.16zm-1.969-1.758c.564 0 1.02.445 1.02.993s-.456.991-1.02.991c-.564 0-1.02-.443-1.02-.99 0-.55.456-.994 1.02-.994zm3.479-2.09c.162-.48.68-.74 1.165-.58l3.965 1.417c.483.161.742.682.582 1.164-.129.386-.491.63-.878.628-.096 0-.19-.015-.287-.047l-3.966-1.417c-.481-.161-.74-.681-.581-1.164zm-1.94-1.714c.564 0 1.02.444 1.02.991 0 .547-.456.991-1.02.991-.563 0-1.02-.444-1.02-.99 0-.548.457-.992 1.02-.992zm3.537-1.97c.133-.49.646-.779 1.13-.645l3.987 1.231c.49.134.78.64.646 1.13-.113.409-.483.678-.886.678-.082 0-.165-.012-.244-.033l-3.988-1.23c-.491-.135-.779-.641-.645-1.132zm-2.093-1.718c.563 0 1.02.445 1.02.992 0 .548-.457.992-1.02.992-.564 0-1.02-.444-1.02-.992 0-.547.456-.992 1.02-.992z"/>
</svg>
