<svg xmlns="http://www.w3.org/2000/svg" width="24" height="24" viewBox="0 0 24 24">
    <path d="M7 0c.552 0 1 .448 1 1v2h8V1c0-.552.448-1 1-1h1c.552 0 1 .448 1 1v2h4c.552 0 1 .448 1 1v19c0 .552-.448 1-1 1H1c-.552 0-1-.448-1-1V4c0-.552.448-1 1-1h4V1c0-.552.448-1 1-1h1zm14 8H3c-.552 0-1 .448-1 1v12c0 .552.448 1 1 1h18c.552 0 1-.448 1-1V9c0-.552-.448-1-1-1zM7 18v2H5v-2h2zm4 0v2H9v-2h2zm4 0v2h-2v-2h2zm4 0v2h-2v-2h2zM7 14v2H5v-2h2zm4 0v2H9v-2h2zm4 0v2h-2v-2h2zm4 0v2h-2v-2h2zM7 10v2H5v-2h2zm4 0v2H9v-2h2zm4 0v2h-2v-2h2zm4 0v2h-2v-2h2z"/>
</svg>
