<svg xmlns="http://www.w3.org/2000/svg" width="24" height="24" viewBox="0 0 24 24">
    <path d="M10.605 21.22c2.184 0 4.2-.665 5.885-1.788l4.198 4.207c.479.478 1.27.478 1.768 0l1.185-1.186c.479-.478.479-1.268 0-1.767L19.422 16.5c1.123-1.685 1.788-3.702 1.788-5.885C21.21 4.772 16.45.01 10.605.01 4.762.01 0 4.772 0 10.615 0 16.458 4.741 21.22 10.605 21.22zm0-17.051c3.556 0 6.447 2.89 6.447 6.446 0 3.556-2.89 6.446-6.447 6.446-3.556 0-6.446-2.89-6.446-6.446 0-3.556 2.89-6.446 6.446-6.446z"/>
</svg>
