<svg xmlns="http://www.w3.org/2000/svg" width="24" height="24" viewBox="0 0 24 24">
    <path d="M22.684 9.394l-1.88-.239c-.155-.477-.346-.937-.57-1.374l1.162-1.495c.47-.605.415-1.459-.122-1.979l-1.575-1.575c-.525-.542-1.38-.596-1.985-.127L16.22 3.766c-.437-.223-.897-.414-1.375-.569l-.24-1.877C14.517.567 13.879 0 13.122 0h-2.24c-.758 0-1.397.567-1.487 1.317l-.239 1.88c-.478.155-.938.345-1.375.57L6.286 2.604c-.604-.469-1.458-.415-1.979.122L2.732 4.301c-.542.526-.597 1.38-.127 1.986l1.161 1.494c-.224.437-.414.897-.569 1.374l-1.877.24C.567 9.484 0 10.122 0 10.88v2.24c0 .758.567 1.397 1.317 1.487l1.88.239c.155.477.346.937.57 1.374l-1.162 1.495c-.47.605-.415 1.459.122 1.979l1.575 1.575c.526.54 1.38.595 1.985.126l1.494-1.161c.437.224.897.415 1.374.569l.24 1.876c.09.755.728 1.322 1.485 1.322h2.24c.758 0 1.397-.567 1.487-1.317l.239-1.88c.477-.155.937-.346 1.374-.57l1.495 1.162c.605.47 1.459.415 1.979-.122l1.575-1.575c.542-.526.597-1.38.127-1.985l-1.161-1.494c.224-.437.415-.897.569-1.374l1.876-.24c.753-.09 1.32-.728 1.32-1.485v-2.24c.001-.758-.566-1.397-1.316-1.487zM12 17.001c-2.757 0-5-2.243-5-5 0-2.758 2.243-5 5-5 2.758 0 5 2.242 5 5 0 2.757-2.242 5-5 5z"/>
</svg>
